<svg fill="#000" xmlns="http://www.w3.org/2000/svg" viewBox="0 0 390 113"><g id="SvgjsG1174" featurekey="rootContainer" transform="matrix(1,0,0,1,0,0)" fill="#111111"><rect xmlns="http://www.w3.org/2000/svg" width="390" height="113" rx="10" ry="10"></rect></g><g id="SvgjsG1175" featurekey="q4o0QG-0" transform="matrix(4.8382634891516325,0,0,4.8382634891516325,18.838817869994237,-4.094552268257683)" fill="#fff"><path d="M4.6 5.119999999999999 l0.88 0.2 l-2.62 9.32 l1.4 -0.14 l0.5 -4.6 l2.4 0.08 l0.26 2.68 l0 1.84 l0 2.8 c0 0.32 -0.02 0.98 0.06 1.6 c0.02 0.34 0.02 0.72 0.02 1.12 l-1.3 0.06 l-2.06 -0.06 l0.12 -3.76 l-1.92 0.14 l-2.1 0.1 l0 -1.7 l2.72 -9.68 l1.64 0 z M12.600000000000001 8.22 l-2.1 -0.22 l-0.22 9.2 l1.92 0.04 l0.28 -0.3 l0.48 -4.78 l0 -2.3 z M8.860000000000001 5.359999999999999 l0.62 0 l1.6 -0.04 c0.88 -0.02 1.72 -0.04 2.1 0.02 l1.18 0.34 c0.24 0.08 0.48 0.18 0.72 0.28 l1.1 1.76 c0.08 1.26 0.14 2.44 0.16 3.56 c0 1.92 0 4.02 -0.16 4.9 c-0.1 0.62 -0.24 1.14 -0.26 1.52 c-0.06 0.22 -0.08 0.44 -0.08 0.62 l-1.06 1.58 l-2.4 0.14 l-3.62 0 z M17.580000000000002 5.26 l2.56 0.08 l2.16 10.14 l0.18 -1.06 l-0.58 -9.1 l2.22 -0.04 l0.88 0.2 l-0.4 14.4 l-1.78 0.24 l-1.78 -0.1 l-1.18 -8.78 l-0.42 -1.3 l0.06 10.04 l-2.06 0.18 l-0.1 -8.58 z M26.58 8.88 l3.2 0.08 l-0.16 2.5 l0.24 5.08 l-0.14 3.38 l-0.28 0.04 l-2.8 -0.06 l-0.12 -0.92 l-0.04 -5.36 z M26.7 4.98 l3.02 0.04 l0.14 0.78 l0 1.34 l-0.08 0.72 l-3.2 0.02 l-0.1 -1.3 l-0.04 -1.4 z M38.22 6.16 l0.38 2.7 l-0.02 0.08 c0 0.02 -0.08 0.96 -0.12 1.9 c-0.04 0.54 -0.08 1.18 -0.1 1.88 l-0.72 1.28 l-1.92 0.64 l-1.7 0.08 l0.28 3.36 l0.1 1.7 l-1.38 0.16 c-0.14 0 -0.38 0.02 -0.6 0.04 c-0.14 0.02 -0.28 0.02 -0.42 0.02 l-0.7 -0.12 l0 -3.04 l-0.12 -1.98 c-0.02 -0.42 -0.02 -0.8 -0.02 -1.14 c-0.02 -0.62 -0.02 -1.22 -0.02 -1.44 l0 -4.62 l0.08 -2.36 l0.78 0 c0.46 0 1 -0.02 1.5 -0.02 c0.98 0 2.02 -0.04 2.28 0.02 c0.22 0.06 0.66 0.1 1.04 0.16 l0.7 0.12 z M35.4 12.68 l0.3 -0.3 c0 -0.32 0.1 -2.02 0.1 -2.22 s-0.18 -0.9 -0.22 -1.1 l-0.48 -0.52 l-0.68 -0.16 l-1.36 0 l-0.12 0.34 l-0.08 1.44 l0.16 2.52 l0.8 0.16 z M41.64 7.699999999999999 l0.06 1.58 l0 2.06 l0.72 0 l0.7 -0.06 l0.46 -0.44 l0 -0.2 l0.08 -1.36 l-0.16 -1.22 l0 -0.04 l-0.22 -0.8 l-0.54 -0.24 l-1.04 0 z M41.519999999999996 5.24 l2.62 0.04 l1.24 0.14 l1.02 0.58 l0.8 1.32 l-0.26 3.86 l-0.32 0.6 l-1.18 0.38 l1.34 1 l0.36 0.98 l0 1.6 l-0.18 4.24 l-0.52 0.12 l-2.06 -0.1 l-0.1 -3.9 l-0.14 -2.06 l-0.48 -0.52 l-0.92 -0.3 l0 1.48 l0 3.72 l0.06 1.56 l-1.94 -0.02 l-0.92 0.06 l-0.32 -0.06 l0 -2.88 l0 -2.1 l0.12 -2.72 l-0.08 -4.68 l-0.04 -2.32 z M50.26 13.379999999999999 l2 -0.1 l-0.06 -2.78 l-0.5 -1.94 l-1.24 -0.1 z M50.8 5.199999999999999 l1.28 0 l2.62 0.18 l0.54 7.26 l0.2 7.24 l-0.6 0.04 l-2.26 0.1 l-0.24 0 l-0.18 -4.5 l-1.88 -0.12 l-0.5 4.6 l-1.96 0.06 l0.64 -7.48 l0.58 -4.28 l0.42 -3 z M61.82 12.6 l0 -4.04 l-2.42 0.04 c0 0.5 -0.16 1.4 -0.18 2.2 c0 0.46 -0.02 0.96 -0.06 1.48 l-0.12 1.74 l0 2.04 l0.2 1.16 l1.96 0.12 l0.42 -0.3 l0.12 -2.32 l0.36 0.04 l1.26 -0.04 l0.14 0.72 l-0.06 3 l0 1 l-1.24 0.52 l-0.38 0.06 l-0.34 0.04 l-3.02 -0.12 l-1.72 -0.64 l-0.64 -3.18 l0.24 -3 l0.18 -3.28 l0 -2.6 l0.74 -1.4 l0.68 -0.58 l2.32 0.06 l2.02 0 l1.22 0.54 l0.08 6.64 c-0.32 0.04 -1.44 0.1 -1.76 0.1 z M69.22 5.119999999999999 l3.36 0 l-2.52 8.38 l0 1.02 l-0.16 5.52 l-3.88 0.1 l0.72 -6.08 l-0.64 -0.98 l-2.44 -7.74 l3.08 -0.22 l1.36 7.52 l0.56 -1.54 z"></path></g></svg>